<svg width="63" height="15" viewBox="0 0 63 15" fill="none" xmlns="http://www.w3.org/2000/svg">
<path d="M3.68272 10.013L5.2773 5.64935L6.70103 10.013H3.68272ZM10.2129 14.7468L5.2773 0L0 14.7468H1.97424L2.96136 12H7.25154L8.23866 14.7468H10.2129Z" fill="#D81D99"/>
<path d="M11.2055 14.7468H13.0469V0.857142H11.2055V14.7468Z" fill="#D81D99"/>
<path d="M16.6074 5.59091H14.785V10.6364C14.785 13.539 16.0759 14.9805 18.7335 14.9805C20.1762 14.9805 21.2203 14.5519 21.9796 13.539C22.644 12.6623 22.682 11.7662 22.682 10.6364V5.59091H20.8596V10.5974C20.8596 12.2727 20.1003 13.1494 18.7145 13.1494C17.3477 13.1494 16.6074 12.2727 16.6074 10.5974V5.59091Z" fill="#D81D99"/>
<path d="M24.5087 14.7468H26.312V9.42857C26.312 8.06493 27.1093 7.34416 28.571 7.34416C28.647 7.34416 28.7229 7.34416 28.7988 7.34416V5.47403C28.7039 5.47403 28.609 5.47403 28.5331 5.47403C26.1032 5.47403 24.5087 7.01299 24.5087 9.44805V14.7468Z" fill="#D81D99"/>
<path d="M34.0273 7.14935C35.6219 7.14935 36.8558 8.43506 36.8558 10.1883C36.8558 11.961 35.6789 13.1494 33.9324 13.1494C32.2619 13.1494 31.085 11.961 31.085 10.2857C31.085 8.41558 32.3948 7.14935 34.0273 7.14935ZM37.9189 12.6234L38.6213 14.7662H40.5196L38.7921 9.46753C38.4504 8.3961 38.1277 7.44156 37.3684 6.66234C36.4951 5.78571 35.4131 5.33766 34.0843 5.33766C31.2748 5.33766 29.2246 7.48052 29.2246 10.1688C29.2246 12.974 31.1609 15 33.9324 15C35.6979 15 37.0836 14.1818 37.9189 12.6234Z" fill="#D81D99"/>
<path d="M41.1292 14.7468H42.9326V10.5C45.1726 10.539 46.3116 11.8052 46.3116 14.3182C46.3116 14.4545 46.2926 14.5909 46.2926 14.7468H48.115C48.115 14.6299 48.115 14.5325 48.115 14.4156C48.115 11.6494 47.1659 9.97403 45.2296 9.33117L48.115 5.59091H45.913L42.9326 9.50649V0.857142H41.1292V14.7468Z" fill="#D81D99"/>
<path d="M50.9794 5.59091H49.157V10.6364C49.157 13.539 50.4479 14.9805 53.1055 14.9805C54.5482 14.9805 55.5923 14.5519 56.3516 13.539C57.016 12.6623 57.054 11.7662 57.054 10.6364V5.59091H55.2316V10.5974C55.2316 12.2727 54.4723 13.1494 53.0865 13.1494C51.7197 13.1494 50.9794 12.2727 50.9794 10.5974V5.59091Z" fill="#D81D99"/>
<path d="M58.1783 7.20779H59.0895V10.6364C59.0895 13.2468 60.4752 14.7078 63 14.7468V12.8766C61.4434 12.7208 60.8739 11.8831 60.8739 10.0909V7.20779H62.8861V5.59091H60.8739V3.42857H59.0895V5.59091H58.1783V7.20779Z" fill="#D81D99"/>
</svg>
